<svg xmlns="http://www.w3.org/2000/svg" viewBox="0 0 1240.81 926.88"><defs><style>.cls-1{fill:#30ab64;}</style></defs><g id="Layer_2" data-name="Layer 2"><g id="Layer_1-2" data-name="Layer 1"><path class="cls-1" d="M459.54,736.87a30.83,30.83,0,0,0-13-20.57q-.07,40.58-.16,81.17c-8.25-15.25-16.68-30.73-29-42.91s-29.31-20.84-46.55-19.07c-16.58,1.69-30.83,12.57-42,25-5.19,5.76-10.16,12.51-10.42,20.27s6.36,16.07,14,14.71c6.82-1.2,11.11-9,18-9.83,9.65-1.14,14.59,12.59,10.73,21.51s-12.31,15-17.38,23.26l23.31,10.22,58.78-61c25.64,28.29,23.31,71.3,19.43,109.28-3.4-17.6-23.68-26.67-41.6-27.23s-35.92,4.36-53.64,1.67-36-17.5-33-35.17c1-5.86,2.4-14.59-3.49-15.29-10.35-1.24-1.19,42.7.92,46.75,7.65,14.7,21.82,26.18,38.29,29,17.42,3,35-3.18,52.57-4.82s38.65,3.66,45,20.15c2.86,7.37,2.74,16.72,9.13,21.39q0-87.24,0-174.45l25.08,0c-3.55-9.8-14.84-16.14-25.06-14m-85.82,64.07q2.52-10.49-5.84-19.12t-21-8.64a72,72,0,0,1,18.78-14.72q10-5.25,19.09-5.26a28.24,28.24,0,0,1,12.31,3,59.08,59.08,0,0,1,12.62,8.47Z"/><path class="cls-1" d="M863.7,737l-1.56-.22a15.49,15.49,0,0,1-4.39-.93c-5.27-2.24-6.4-9.05-7-14.72s-2.58-12.54-8.16-13.82L842.48,773c-6.19-13.88-13.82-29.13-28.19-34.11-5.87-2-12.21-2.05-18.42-2q-80.22.12-160.44.21c3.27,5.57,7.15,11.59,13.37,13.27a24.8,24.8,0,0,0,6.55.59l84.37,0c-.09,4.25-.19,8.52-.28,12.78,0,.75-20.5,7.6-22.6,8.51a218.63,218.63,0,0,0-23.61,12.2c-14.61,8.69-27.49,19.5-40.59,30.16l16.09,21q29.34,5.4,50.63,28.77T746,920.11l6.32,6.77V785.37q21.43,0,35.64,14t11.37,32.33a16.06,16.06,0,0,0-6-6.27,16.7,16.7,0,0,0-8.51-2.19,15,15,0,0,0-11.36,5.08,17.23,17.23,0,0,0-4.73,12.17c0,16.63,19.29,21.24,30.66,11.72,7.43-6.24,10.65-16.3,11.11-26a59,59,0,0,0-58.23-61.78l.06-13.65,54.93,0c4.62,0,9.4,0,13.61,1.94,5.09,2.3,8.63,7,11.35,11.92,12,21.48,11.68,47.42,11.07,72q-.66,26.7-1.33,53.42c-.13,5.44-.27,11,1.17,16.21,2.06,7.53,7.13,13.82,12.08,19.87q-.06-90-.11-179.95a31,31,0,0,0,24.77,4.38A21,21,0,0,0,863.7,737m-124,63.87v70c0,3.88-1.28,10.33,0,14.06q-8.52-24.72-24.62-42c-10.65-11.44-22.6-15.9-35.67-23.14,11.76-13.86,28.7-23.93,45.49-30.45,2.65-1,9.2-4.58,12-3.93,3.49.81,2,1.06,2.79,4,.85,3.33,0,8.07,0,11.48"/><path class="cls-1" d="M1195.45,750.9a22.28,22.28,0,0,0-11.66-12.32,21.74,21.74,0,0,0-13.45-1.71,29,29,0,0,0-12.89-20.58l-.09,59.09c-4.19-9.6-8.54-19.44-15.84-27s-18.29-12.38-28.39-9.56c-10.73,3-17.44,13.37-23.06,23-13-19.69-38.84-29.89-61.77-24.39,4.82,17.34,38.25,8.74,44.13,25.73,3.34,9.64-5.51,18.7-12.64,26-14.58,14.83-6.18,51.44,18.63,38.1,9.3-5,14-15.63,17-25.75,5,13.49,14.23,29.66,28.51,27.85,8.37-1.07,14.85-9,15.67-17.41s-3.27-16.74-9.37-22.57c-7.19-6.85-18.23-13.35-16.36-23.11,1.25-6.56,8.79-10.54,15.41-9.61s12.17,5.58,16.19,10.92c12.66,16.82,12.87,39.6,12.54,60.64q-.46,30-.94,60c-.2,13.3,1.31,29.52,13.35,35.18q0-86.26-.05-172.52l25.08,0"/><path class="cls-1" d="M1217,374.38c-1.54-2.42-15.4-24.84-26.76-20.87-8.78,3.07-12,13.72-14.76,22.75-14.78,48-52.32,88.1-98.63,105.31a387.79,387.79,0,0,1,1.88-187.39l30.26,7.71c22.55-2.81,44.21,9.15,65.39,17.86,21.7,8.94,49.32,13.6,66.48-2.42-18.09-20.58-44.37-31.75-70-41.39a1227.84,1227.84,0,0,0-588.73-67.87C564.93,165.46,530.36,100,461.93,50.39,431.4,28.24,367.12-5.1,300,.66c-29.45,2.54-64.11,25-56,53.39,7.67,26.74,43.39,29.58,71.06,32.37,74.52,7.51,139.44,52,200.73,95.06Q413.2,211.72,312.08,247c-12.58,4.37-27.91,13.52-24.77,26.47,1.18,4.78,4.77,8.5,7.74,12.42,27.66,36.5,2.24,87.85,1.44,133.64a120.8,120.8,0,0,0,24.66,74.86c4,5.15,8.57,10.17,14.63,12.47,15.46,5.85,30.91-7.7,41.91-20q33.62-37.68,67.25-75.34c6.45-7.24,13.21-14.68,22.17-18.35,28.21-11.55,56.87,23.54,53.38,53.82-2.94,25.55-19.93,48-41.34,62.3-20.52,13.69-44.77,20.67-69,25.4-76.35,14.93-155,9.31-232.62,3.61-12.75-1-25.56-1.88-38.06-4.59-38.17-8.25-71.72-32.5-110.27-38.77-49.81-8.11-26.27,25-.58,41.72,27.12,17.65,58.54,27.95,89.4,36.84,58.2,16.75,117.89,29.88,178.41,31.38,59.29,1.47,118.56-8.29,175.35-25.4,21.12-6.36,42.32-13.94,59.85-27.32C560.28,530.23,576.3,494,576.81,458s-13.52-71.42-35.69-99.79c-21.39-27.39-57.37-49.92-89.72-37.2-44.34,17.42-51.92,88.14-98.33,98.88q7.46-39.36,14.92-78.72c1.87-9.85,4.07-20.34,11.24-27.35,6.24-6.09,15.15-8.41,23.64-10.43A1286,1286,0,0,1,621.71,271.2c-13.6,29.7-49.17,122-2.28,207.91,50,91.57,175.61,142.65,202.91,120.83,4.15-3.33,9.89-11.44,7.67-17.8-3.79-10.85-28.75-10.78-45.76-13.22-44.63-6.39-75.5-35.87-91-50.69,0,0-86-82.1-7.86-243.69a40.54,40.54,0,0,1,7.07-10.2c26.15-1.78,54.49-2.93,59.37-2.91q80.14.33,160,8.23a1011.75,1011.75,0,0,0-7.11,153.86,75.33,75.33,0,0,1-46.57-27c-28-35-24.07-93.57-62.8-116.2-4.16-2.42-8.82-4.32-13.64-4.21-18.83.41-23.45,27.87-15.35,44.88s22.93,32.38,22,51.2c-24.08,23.55-49.52,49.71-54,83.11S759.71,527.4,792,517.83c25.42-7.54,35.44-37.51,41.67-63.29a454.7,454.7,0,0,1,91.52,92.32c7.24,9.79,14.47,20.2,25.13,26.07s26,5.38,33-4.53c7.84-11,1.88-26.06-3.46-38.46A315.76,315.76,0,0,1,956.3,370.6c3.71-32.89,10.88-71-5.35-97.58,22.6,2.19,47.5,5.32,71.4,9.15-15.35,67.62-13.12,139.35,7.08,205.65,5.67,18.62,14.21,38.52,31.53,46.7,17.9,8.44,39.37,1.31,55.67-10s29.75-26.66,46.6-37.1c-11.91,58.54-5.52,102.14,1.37,129,4.23,16.5,13.33,52,30.35,53.58,10.93,1,20.2-12.35,20.91-13.4,17.12-25.33-9.27-55.22-17.17-100.76-14.55-84,49-133.59,18.26-181.4"/></g></g></svg>